<?xml version="1.0" standalone="no"?>
<!DOCTYPE svg PUBLIC "-//W3C//DTD SVG 20010904//EN"
 "http://www.w3.org/TR/2001/REC-SVG-20010904/DTD/svg10.dtd">
<svg version="1.0" xmlns="http://www.w3.org/2000/svg"
 width="1634.000000pt" height="1558.000000pt" viewBox="0 0 1634.000000 1558.000000"
 preserveAspectRatio="xMidYMid meet">
<metadata>
Created by potrace 1.16, written by Peter Selinger 2001-2019
</metadata>
<g transform="translate(0.000000,1558.000000) scale(0.100000,-0.100000)"
fill="#000000" stroke="none">
<path d="M0 8745 c0 -5462 3 -6835 13 -6835 18 1 158 106 150 113 -3 4 3 7 13
7 11 0 24 3 30 8 5 4 -1 -2 -15 -13 -13 -11 -60 -47 -105 -81 l-81 -60 -3
-942 -2 -942 8170 0 8170 0 0 7790 0 7790 -8170 0 -8170 0 0 -6835z m7382
5777 c2 -4 53 -48 113 -97 61 -49 151 -124 201 -167 51 -43 94 -78 97 -78 3 0
35 -29 72 -65 37 -35 71 -62 76 -59 5 3 9 -2 9 -11 0 -8 10 -19 23 -24 12 -5
29 -18 37 -30 8 -12 20 -21 28 -21 7 0 11 -4 7 -9 -3 -5 9 -21 27 -35 18 -13
76 -67 128 -118 53 -51 105 -101 115 -110 11 -9 65 -62 119 -117 55 -56 104
-101 108 -101 4 0 8 -4 8 -9 0 -8 112 -130 248 -268 34 -35 62 -68 62 -72 0
-4 10 -16 21 -27 12 -10 71 -77 133 -149 61 -71 118 -136 126 -145 8 -8 37
-43 63 -78 27 -34 52 -62 58 -62 5 0 9 -5 9 -10 0 -16 100 -140 113 -140 5 0
8 -3 4 -6 -3 -3 27 -48 66 -99 116 -149 192 -253 274 -370 42 -60 79 -112 82
-115 3 -3 12 -17 19 -31 8 -15 25 -38 38 -52 13 -14 24 -28 24 -31 0 -2 36
-60 80 -128 44 -67 99 -154 122 -191 24 -37 55 -87 70 -110 25 -39 42 -69 107
-182 13 -22 45 -77 72 -123 27 -45 49 -84 49 -87 0 -2 17 -32 37 -67 50 -85
133 -239 140 -260 3 -10 10 -18 15 -18 5 0 6 -4 3 -10 -3 -5 1 -10 10 -10 9 0
14 -4 10 -10 -6 -10 103 -233 117 -238 4 -2 8 -10 8 -18 0 -8 24 -65 54 -127
63 -132 72 -151 166 -367 102 -234 111 -255 188 -450 78 -195 132 -341 199
-535 24 -71 47 -137 50 -145 8 -19 8 -20 17 -52 5 -16 12 -28 16 -28 5 0 8 -8
7 -17 -1 -24 74 -267 85 -271 4 -2 6 -7 3 -11 -2 -5 7 -46 21 -92 14 -46 38
-127 53 -179 25 -82 35 -119 47 -165 32 -135 90 -341 96 -343 5 -2 6 -8 3 -12
-3 -5 4 -46 15 -91 12 -45 25 -100 30 -123 5 -22 14 -63 20 -91 50 -220 72
-324 77 -350 2 -16 9 -48 14 -70 6 -22 12 -55 15 -73 2 -18 13 -74 23 -125 10
-51 38 -211 62 -357 24 -146 47 -266 51 -268 4 -2 5 -9 2 -17 -3 -7 4 -78 15
-157 41 -284 71 -532 96 -798 8 -91 20 -210 25 -265 23 -223 72 -1062 63
-1077 -2 -5 -90 -8 -195 -8 -320 0 -749 21 -1243 61 -71 6 -182 14 -245 19
-63 5 -158 14 -210 19 -52 6 -144 15 -205 21 -60 6 -173 17 -250 25 -77 8
-210 22 -295 30 -85 8 -225 21 -310 30 -85 9 -198 20 -250 25 -52 4 -149 13
-215 19 -388 36 -780 67 -940 75 -55 3 -161 8 -235 12 -74 4 -137 8 -139 10
-2 2 4 45 13 96 23 128 42 244 61 368 9 58 23 146 30 195 50 322 79 547 150
1175 101 898 154 1913 155 2960 0 537 -18 1294 -35 1485 -3 33 -10 148 -15
256 -6 107 -12 211 -14 230 -2 19 -7 81 -11 139 -9 152 -62 730 -79 875 -2 17
-7 62 -11 100 -49 512 -246 1816 -341 2260 -8 39 -19 93 -24 120 -17 97 -31
150 -43 157 -7 5 -8 8 -1 8 6 0 9 13 6 30 -3 22 0 30 11 30 8 0 17 -3 19 -8z
m7885 -11539 c-7 -11 -111 -63 -227 -113 -98 -43 -468 -170 -495 -170 -8 0
-15 -4 -15 -8 0 -4 -8 -8 -17 -8 -10 -1 -101 -22 -203 -47 -242 -60 -546 -122
-700 -143 -19 -2 -75 -11 -125 -19 -49 -8 -146 -21 -215 -30 -69 -8 -156 -20
-195 -25 -38 -6 -126 -15 -195 -20 -69 -6 -136 -12 -150 -15 -14 -3 -90 -9
-170 -15 -80 -6 -158 -12 -175 -15 -16 -2 -183 -12 -370 -22 -474 -25 -1529
-25 -1958 0 -328 19 -616 43 -624 51 -12 12 62 15 467 21 923 13 1720 53 2510
125 529 49 1413 164 1463 191 10 5 22 7 27 4 5 -3 62 4 127 15 65 12 154 27
198 35 226 40 512 97 670 135 44 10 136 32 205 49 177 42 178 42 167 24z
m-6437 -328 c0 -4 -136 -94 -190 -124 -88 -51 -198 -110 -282 -153 -54 -27
-98 -53 -98 -59 0 -6 -4 -7 -10 -4 -5 3 -42 -8 -82 -26 -174 -75 -208 -88
-383 -143 -82 -26 -157 -50 -165 -54 -8 -3 -22 -6 -30 -8 -8 -1 -42 -9 -75
-17 -147 -39 -448 -95 -605 -112 -286 -32 -392 -37 -890 -40 -476 -3 -705 2
-1010 19 -293 17 -1044 36 -1425 36 -814 0 -1457 -46 -2175 -156 -314 -47
-360 -56 -360 -65 0 -5 -6 -6 -14 -3 -19 7 -448 -78 -713 -141 -73 -17 -73
-18 -73 -7 0 9 21 20 78 44 17 7 32 17 32 21 0 5 4 6 8 3 8 -5 56 14 272 104
25 10 106 41 180 69 74 28 149 56 165 62 17 7 33 12 38 11 4 -1 7 6 7 15 0 15
2 16 10 3 6 -9 13 -11 18 -5 4 6 12 10 17 10 6 0 49 14 97 30 59 19 84 32 75
38 -8 6 -6 7 6 3 10 -3 87 16 170 44 84 27 164 52 180 56 15 3 27 11 27 16 0
6 7 8 15 4 8 -3 28 0 43 6 15 6 34 12 42 13 17 2 128 33 150 42 8 3 22 7 32 9
9 2 60 15 115 30 176 46 507 123 643 148 188 35 307 56 340 61 19 2 82 11 140
20 111 16 369 46 560 64 419 41 1247 41 1795 1 77 -6 230 -17 340 -25 110 -8
234 -17 275 -20 41 -3 98 -8 125 -11 183 -17 567 -36 837 -41 340 -6 544 3
828 38 145 18 212 29 425 71 28 5 73 16 101 24 28 8 60 16 70 18 45 9 140 39
152 49 7 5 15 7 18 4 3 -3 29 3 57 13 50 18 97 25 97 15z"/>
</g>
</svg>
